# xmcd
#
# Track frame offsets: 
#        150
#        22102
#        36987
#        55526
#        74077
#        96661
#        111505
#        131546
#        150908
#
# Disc length: 2290 seconds
#
# Revision: 0
# Processed by: cddbd v1.4PL0 Copyright (c) Steve Scherf et al.
# Submitted via: ExactAudioCopy v0.90a11
#
DISCID=7f08f009
DTITLE=Jamie Walker - Steel Blue Moon
DYEAR=1900
DGENRE=
TTITLE0=As It Should Be
TTITLE1=Wanderlust
TTITLE2=Steel Blue Moon
TTITLE3=Memories
TTITLE4=Key To Heaven
TTITLE5=Nothing to Hold Me Down
TTITLE6=What Did I Do?
TTITLE7=Pain Me A Picture
TTITLE8=Still Something
EXTD=
EXTT0=
EXTT1=
EXTT2=
EXTT3=
EXTT4=
EXTT5=
EXTT6=
EXTT7=
EXTT8=
PLAYORDER=
